<?xml version="1.0" encoding="UTF-8" standalone="no"?>
<svg
   width="64"
   height="64"
   viewBox="0 0 64 64"
   version="1.1"
   id="svg1"
   xmlns="http://www.w3.org/2000/svg"
   xmlns:svg="http://www.w3.org/2000/svg">
  <defs
     id="defs1" />
  <rect
     width="64"
     height="64"
     rx="14"
     fill="#e8e8e8"
     id="rect1" />
  <path
     d="m 10.352539,40.549805 v -8.529297 l 8.529297,4.264648 z M 31.890625,30.344727 v 2.75 q -0.870117,-0.558594 -1.81543,-0.837891 -0.93457,-0.290039 -1.879883,-0.290039 -1.052734,0 -1.589843,0.311523 -0.53711,0.300782 -0.53711,0.902344 0,0.859375 2.298828,1.396484 l 0.118165,0.03223 0.902343,0.214844 q 1.71875,0.408203 2.513672,1.321289 0.805664,0.902344 0.805664,2.449219 0,1.858398 -1.224609,2.792968 -1.213867,0.923828 -3.663086,0.923828 -1.084961,0 -2.223633,-0.193359 -1.138672,-0.182617 -2.30957,-0.558594 v -2.75 q 1.041992,0.590821 2.116211,0.902344 1.084961,0.311523 2.094726,0.311523 1.106446,0 1.675782,-0.322265 0.569335,-0.322266 0.569335,-0.93457 0,-0.601563 -0.408203,-0.923829 -0.397461,-0.322265 -1.912109,-0.6875 l -0.870117,-0.193359 q -1.804688,-0.408203 -2.631836,-1.27832 -0.827149,-0.870117 -0.827149,-2.331055 0,-1.740234 1.256836,-2.707031 1.256836,-0.966797 3.53418,-0.966797 1.020508,0 2.030273,0.171875 1.020508,0.161133 1.976563,0.494141 z m 10.011719,-3.791993 v 3.416016 h 4.114258 v 2.416992 h -4.114258 v 5.69336 q 0,0.805664 0.386718,1.160156 0.397461,0.34375 1.310547,0.34375 h 2.416993 V 42 h -2.642579 q -2.707031,0 -3.663086,-0.859375 -0.956054,-0.870117 -0.956054,-3.211914 V 32.385742 H 35.682617 V 29.96875 h 3.072266 v -3.416016 z m 13.245117,0 v 3.416016 h 4.114258 v 2.416992 h -4.114258 v 5.69336 q 0,0.805664 0.386719,1.160156 0.397461,0.34375 1.310547,0.34375 h 2.416992 V 42 H 56.619141 Q 53.912109,42 52.956055,41.140625 52,40.270508 52,37.928711 V 32.385742 H 48.927734 V 29.96875 H 52 v -3.416016 z"
     id="text1"
     style="font-weight:600;font-size:22px;font-family:'JetBrains Mono', Menlo, Monaco, Consolas, monospace;fill:#1a1a1a"
     aria-label="▸stacy" />
</svg>
